# xmcd
#
# Track frame offsets:
#	150
#	12794
#	31091
#	48063
#	62536
#	78910
#	90738
#	110390
#	127121
#	142540
#	156325
#	170438
#	184033
#
# Disc length: 2603 seconds
#
# Revision: 1
# Processed by: cddbd v1.5.1PL0 Copyright (c) Steve Scherf et al.
# Submitted via: audiograbber 1.80
#
DISCID=930a290d
DTITLE=The Retro Rockets - Cameras, Lights, Action!
DYEAR=1900
DGENRE=
TTITLE0=Shes The Bomb
TTITLE1=Swing 4 Me
TTITLE2=Retro Rockitz
TTITLE3=Ginger xxx
TTITLE4=Margarita
TTITLE5=Next Step Venus
TTITLE6=Best Of Both Worlds
TTITLE7=Zanzibar
TTITLE8=Cool
TTITLE9=Honey Bear
TTITLE10=Dancin Shoes
TTITLE11=Rockhouse
TTITLE12=Rumble
EXTD=Australian Artist From Newcastle, NSW
EXTT0=
EXTT1=
EXTT2=
EXTT3=
EXTT4=
EXTT5=
EXTT6=
EXTT7=
EXTT8=
EXTT9=
EXTT10=
EXTT11=
EXTT12=
PLAYORDER=
